<mxfile host="app.diagrams.net" modified="2023-12-20T08:53:24.334Z" agent="Mozilla/5.0 (Macintosh; Intel Mac OS X 10_15_7) AppleWebKit/605.1.15 (KHTML, like Gecko) Version/16.6 Safari/605.1.15" version="22.1.11" etag="5jU5BQydmKEO1zbHZDyl" type="github">
  <diagram name="Page-1" id="sRQ75khhgBt7_KrR5yQi">
    <mxGraphModel>
      <root>
        <mxCell id="0" />
        <mxCell id="1" parent="0" />
      </root>
    </mxGraphModel>
  </diagram>
</mxfile>
